<svg viewBox="0 0 720 430" xmlns="http://www.w3.org/2000/svg" font-family="Inter, 'Helvetica Neue', Arial, sans-serif">
<defs>
  <marker id="arr" viewBox="0 0 10 10" refX="8" refY="5" markerWidth="6" markerHeight="6" orient="auto-start-reverse">
    <path d="M2 1L8 5L2 9" fill="none" stroke="context-stroke" stroke-width="1.6" stroke-linecap="round" stroke-linejoin="round"/>
  </marker>
  <pattern id="hatch" width="5" height="5" patternUnits="userSpaceOnUse" patternTransform="rotate(45)">
    <line x1="0" y1="0" x2="0" y2="5" stroke="#6B7280" stroke-width="1" stroke-opacity="0.4"/>
  </pattern>
</defs>
<rect x="0" y="0" width="720" height="430" fill="white"/>
<line x1="90" y1="330" x2="655" y2="330" stroke="#6B7280" stroke-width="1" marker-end="url(#arr)"/>
<line x1="90" y1="330" x2="90" y2="55" stroke="#6B7280" stroke-width="1" marker-end="url(#arr)"/>
<line x1="640" y1="330" x2="640" y2="55" stroke="#6B7280" stroke-width="1" marker-end="url(#arr)"/>
<text x="662" y="334" text-anchor="start" fill="#6B7280" font-family="Inter, 'Helvetica Neue', Arial, sans-serif" font-size="12" font-weight="400" >t</text>
<text x="82" y="334.0" text-anchor="end" fill="#6B7280" font-family="Inter, 'Helvetica Neue', Arial, sans-serif" font-size="11" font-weight="400" >0 V</text>
<text x="648" y="334.0" text-anchor="start" fill="#6B7280" font-family="Inter, 'Helvetica Neue', Arial, sans-serif" font-size="11" font-weight="400" >0</text>
<line x1="86" y1="330.0" x2="90" y2="330.0" stroke="#6B7280" stroke-width="1"/>
<line x1="640" y1="330.0" x2="644" y2="330.0" stroke="#6B7280" stroke-width="1"/>
<text x="82" y="204.0" text-anchor="end" fill="#6B7280" font-family="Inter, 'Helvetica Neue', Arial, sans-serif" font-size="11" font-weight="400" >1.65 V</text>
<text x="648" y="204.0" text-anchor="start" fill="#6B7280" font-family="Inter, 'Helvetica Neue', Arial, sans-serif" font-size="11" font-weight="400" >2048</text>
<line x1="86" y1="200.0" x2="90" y2="200.0" stroke="#6B7280" stroke-width="1"/>
<line x1="640" y1="200.0" x2="644" y2="200.0" stroke="#6B7280" stroke-width="1"/>
<text x="82" y="74.0" text-anchor="end" fill="#6B7280" font-family="Inter, 'Helvetica Neue', Arial, sans-serif" font-size="11" font-weight="400" >3.3 V</text>
<text x="648" y="74.0" text-anchor="start" fill="#6B7280" font-family="Inter, 'Helvetica Neue', Arial, sans-serif" font-size="11" font-weight="400" >4095</text>
<line x1="86" y1="70.0" x2="90" y2="70.0" stroke="#6B7280" stroke-width="1"/>
<line x1="640" y1="70.0" x2="644" y2="70.0" stroke="#6B7280" stroke-width="1"/>
<text x="90" y="46" text-anchor="start" fill="#6B7280" font-family="Inter, 'Helvetica Neue', Arial, sans-serif" font-size="11" font-weight="400" >voltage</text>
<text x="640" y="46" text-anchor="end" fill="#6B7280" font-family="Inter, 'Helvetica Neue', Arial, sans-serif" font-size="11" font-weight="400" >ADC code</text>
<polyline points="90.0,299.1 91.8,298.5 93.5,297.9 95.3,297.2 97.1,296.5 98.8,295.8 100.6,295.1 102.4,294.3 104.1,293.5 105.9,292.7 107.7,291.9 109.4,291.0 111.2,290.2 113.0,289.3 114.7,288.3 116.5,287.4 118.3,286.4 120.0,285.5 121.8,284.4 123.6,283.4 125.3,282.4 127.1,281.3 128.9,280.2 130.6,279.1 132.4,278.0 134.2,276.8 135.9,275.7 137.7,274.5 139.5,273.3 141.2,272.1 143.0,270.8 144.8,269.6 146.5,268.3 148.3,267.0 150.1,265.7 151.8,264.4 153.6,263.1 155.4,261.7 157.1,260.3 158.9,258.9 160.7,257.5 162.4,256.1 164.2,254.7 166.0,253.3 167.7,251.8 169.5,250.4 171.3,248.9 173.0,247.4 174.8,245.9 176.6,244.4 178.3,242.8 180.1,241.3 181.9,239.8 183.6,238.2 185.4,236.6 187.2,235.1 188.9,233.5 190.7,231.9 192.5,230.3 194.2,228.7 196.0,227.1 197.8,225.5 199.5,223.8 201.3,222.2 203.1,220.6 204.8,218.9 206.6,217.3 208.4,215.6 210.1,214.0 211.9,212.3 213.7,210.7 215.4,209.0 217.2,207.3 219.0,205.7 220.7,204.0 222.5,202.3 224.3,200.7 226.0,199.0 227.8,197.3 229.6,195.6 231.3,194.0 233.1,192.3 234.9,190.6 236.6,189.0 238.4,187.3 240.2,185.7 241.9,184.0 243.7,182.4 245.5,180.7 247.2,179.1 249.0,177.4 250.8,175.8 252.5,174.2 254.3,172.6 256.1,171.0 257.8,169.4 259.6,167.8 261.4,166.2 263.1,164.6 264.9,163.0 266.7,161.5 268.4,159.9 270.2,158.4 272.0,156.8 273.7,155.3 275.5,153.8 277.3,152.3 279.0,150.8 280.8,149.3 282.6,147.9 284.3,146.4 286.1,145.0 287.9,143.6 289.6,142.2 291.4,140.8 293.2,139.4 294.9,138.0 296.7,136.7 298.5,135.3 300.2,134.0 302.0,132.7 303.8,131.4 305.5,130.2 307.3,128.9 309.1,127.7 310.8,126.5 312.6,125.3 314.4,124.1 316.1,122.9 317.9,121.8 319.7,120.7 321.4,119.5 323.2,118.5 325.0,117.4 326.7,116.4 328.5,115.3 330.3,114.3 332.0,113.4 333.8,112.4 335.6,111.5 337.3,110.5 339.1,109.7 340.9,108.8 342.6,107.9 344.4,107.1 346.2,106.3 347.9,105.5 349.7,104.8 351.5,104.0 353.2,103.3 355.0,102.6 356.8,102.0 358.5,101.4 360.3,100.7 362.1,100.1 363.8,99.6 365.6,99.0 367.4,98.5 369.1,98.0 370.9,97.6 372.7,97.1 374.4,96.7 376.2,96.3 378.0,96.0 379.7,95.6 381.5,95.3 383.3,95.1 385.0,94.8 386.8,94.6 388.6,94.4 390.3,94.2 392.1,94.0 393.9,93.9 395.6,93.8 397.4,93.7 399.2,93.7 400.9,93.6 402.7,93.6 404.5,93.7 406.2,93.7 408.0,93.8 409.8,93.9 411.5,94.0 413.3,94.2 415.1,94.4 416.8,94.6 418.6,94.8 420.4,95.1 422.1,95.4 423.9,95.7 425.7,96.1 427.4,96.4 429.2,96.8 431.0,97.2 432.7,97.7 434.5,98.1 436.3,98.6 438.0,99.2 439.8,99.7 441.6,100.3 443.3,100.9 445.1,101.5 446.9,102.1 448.6,102.8 450.4,103.5 452.2,104.2 453.9,104.9 455.7,105.7 457.5,106.5 459.2,107.3 461.0,108.1 462.8,109.0 464.5,109.8 466.3,110.7 468.1,111.7 469.8,112.6 471.6,113.6 473.4,114.5 475.1,115.6 476.9,116.6 478.7,117.6 480.4,118.7 482.2,119.8 484.0,120.9 485.7,122.0 487.5,123.2 489.3,124.3 491.0,125.5 492.8,126.7 494.6,127.9 496.3,129.2 498.1,130.4 499.9,131.7 501.6,133.0 503.4,134.3 505.2,135.6 506.9,136.9 508.7,138.3 510.5,139.7 512.2,141.1 514.0,142.5 515.8,143.9 517.5,145.3 519.3,146.7 521.1,148.2 522.8,149.6 524.6,151.1 526.4,152.6 528.1,154.1 529.9,155.6 531.7,157.2 533.4,158.7 535.2,160.2 537.0,161.8 538.7,163.4 540.5,164.9 542.3,166.5 544.0,168.1 545.8,169.7 547.6,171.3 549.3,172.9 551.1,174.5 552.9,176.2 554.6,177.8 556.4,179.4 558.2,181.1 559.9,182.7 561.7,184.4 563.5,186.0 565.2,187.7 567.0,189.3 568.8,191.0 570.5,192.7 572.3,194.3 574.1,196.0 575.8,197.7 577.6,199.3 579.4,201.0 581.1,202.7 582.9,204.4 584.7,206.0 586.4,207.7 588.2,209.4 590.0,211.0 591.7,212.7 593.5,214.3 595.3,216.0 597.0,217.6 598.8,219.3 600.6,220.9 602.3,222.6 604.1,224.2 605.9,225.8 607.6,227.4 609.4,229.0 611.2,230.6 612.9,232.2 614.7,233.8 616.5,235.4 618.2,237.0 620.0,238.5" fill="none" stroke="#378ADD" stroke-width="2.2"/>
<text x="166.66666666666669" y="245.54771741143168" text-anchor="start" fill="#378ADD" font-family="Inter, 'Helvetica Neue', Arial, sans-serif" font-size="11" font-weight="600" >analog voltage (continuous)</text>
<polyline points="90.0,297.5 105.6,297.5 105.6,297.5 121.2,297.5 121.2,275.8 136.8,275.8 136.8,275.8 152.4,275.8 152.4,254.2 167.9,254.2 167.9,254.2 183.5,254.2 183.5,232.5 199.1,232.5 199.1,232.5 214.7,232.5 214.7,210.8 230.3,210.8 230.3,189.2 245.9,189.2 245.9,189.2 261.5,189.2 261.5,167.5 277.1,167.5 277.1,145.8 292.6,145.8 292.6,145.8 308.2,145.8 308.2,124.2 323.8,124.2 323.8,124.2 339.4,124.2 339.4,102.5 355.0,102.5 355.0,102.5 370.6,102.5 370.6,102.5 386.2,102.5 386.2,102.5 401.8,102.5 401.8,102.5 417.4,102.5 417.4,102.5 432.9,102.5 432.9,102.5 448.5,102.5 448.5,102.5 464.1,102.5 464.1,102.5 479.7,102.5 479.7,124.2 495.3,124.2 495.3,124.2 510.9,124.2 510.9,145.8 526.5,145.8 526.5,145.8 542.1,145.8 542.1,167.5 557.6,167.5 557.6,189.2 573.2,189.2 573.2,189.2 588.8,189.2 588.8,210.8 604.4,210.8 604.4,232.5 620.0,232.5 620.0,232.5" fill="none" stroke="#E8607A" stroke-width="2"/>
<text x="614.0" y="254.5" text-anchor="end" fill="#E8607A" font-family="Inter, 'Helvetica Neue', Arial, sans-serif" font-size="11" font-weight="600" >quantized reading (discrete steps)</text>
<circle cx="312.6" cy="124.16666666666669" r="16" fill="none" stroke="#1A3A6B" stroke-width="1.3"/>
<line x1="324.6" y1="112.16666666666669" x2="364.6" y2="80.16666666666669" stroke="#1A3A6B" stroke-width="1.1"/>
<text x="368.6" y="76.16666666666669" text-anchor="start" fill="#1A3A6B" font-family="Inter, 'Helvetica Neue', Arial, sans-serif" font-size="11" font-weight="600" >1 step = 1 LSB ≈ 0.8 mV</text>
<text x="368.6" y="90.16666666666669" text-anchor="start" fill="#6B7280" font-family="Inter, 'Helvetica Neue', Arial, sans-serif" font-size="10" font-weight="400" >(real ADC: 4096 steps — far fewer drawn here)</text>
<text x="360.0" y="386" text-anchor="middle" fill="#6B7280" font-family="Inter, 'Helvetica Neue', Arial, sans-serif" font-size="12" font-weight="400" font-style="italic">The ADC turns a continuous voltage into one of 4096 discrete codes:</text>
<text x="360.0" y="403" text-anchor="middle" fill="#6B7280" font-family="Inter, 'Helvetica Neue', Arial, sans-serif" font-size="12" font-weight="400" font-style="italic">0 V → 0, 3.3 V → 4095, one step ≈ 0.8 mV.</text>
</svg>