<svg viewBox="0 0 720 310" xmlns="http://www.w3.org/2000/svg" font-family="Inter, 'Helvetica Neue', Arial, sans-serif">
<defs>
  <marker id="arr" viewBox="0 0 10 10" refX="8" refY="5" markerWidth="6" markerHeight="6" orient="auto-start-reverse">
    <path d="M2 1L8 5L2 9" fill="none" stroke="context-stroke" stroke-width="1.6" stroke-linecap="round" stroke-linejoin="round"/>
  </marker>
  <pattern id="hatch" width="5" height="5" patternUnits="userSpaceOnUse" patternTransform="rotate(45)">
    <line x1="0" y1="0" x2="0" y2="5" stroke="#6B7280" stroke-width="1" stroke-opacity="0.4"/>
  </pattern>
</defs>
<rect x="0" y="0" width="720" height="310" fill="white"/>
<text x="360.0" y="40" text-anchor="middle" fill="#1A3A6B" font-family="Inter, 'Helvetica Neue', Arial, sans-serif" font-size="14" font-weight="700" >One byte (0x35) on the TX line — 8N1 @ 115200 baud</text>
<text x="82.0" y="182" text-anchor="middle" fill="#6B7280" font-family="Inter, 'Helvetica Neue', Arial, sans-serif" font-size="10" font-weight="400" >idle</text>
<line x1="104" y1="86" x2="104" y2="164" stroke="#D0D7E3" stroke-width="1" stroke-dasharray="3 3"/>
<line x1="148" y1="86" x2="148" y2="164" stroke="#D0D7E3" stroke-width="1" stroke-dasharray="3 3"/>
<text x="126.0" y="182" text-anchor="middle" fill="#E8607A" font-family="Inter, 'Helvetica Neue', Arial, sans-serif" font-size="11" font-weight="600" >START</text>
<text x="126.0" y="129.0" text-anchor="middle" fill="#6B7280" font-family="Inter, 'Helvetica Neue', Arial, sans-serif" font-size="11" font-weight="400" >0</text>
<line x1="148" y1="86" x2="148" y2="164" stroke="#D0D7E3" stroke-width="1" stroke-dasharray="3 3"/>
<line x1="192" y1="86" x2="192" y2="164" stroke="#D0D7E3" stroke-width="1" stroke-dasharray="3 3"/>
<text x="170.0" y="182" text-anchor="middle" fill="#1F2937" font-family="Inter, 'Helvetica Neue', Arial, sans-serif" font-size="11" font-weight="400" >D0</text>
<text x="170.0" y="129.0" text-anchor="middle" fill="#6B7280" font-family="Inter, 'Helvetica Neue', Arial, sans-serif" font-size="11" font-weight="400" >1</text>
<line x1="192" y1="86" x2="192" y2="164" stroke="#D0D7E3" stroke-width="1" stroke-dasharray="3 3"/>
<line x1="236" y1="86" x2="236" y2="164" stroke="#D0D7E3" stroke-width="1" stroke-dasharray="3 3"/>
<text x="214.0" y="182" text-anchor="middle" fill="#1F2937" font-family="Inter, 'Helvetica Neue', Arial, sans-serif" font-size="11" font-weight="400" >D1</text>
<text x="214.0" y="129.0" text-anchor="middle" fill="#6B7280" font-family="Inter, 'Helvetica Neue', Arial, sans-serif" font-size="11" font-weight="400" >0</text>
<line x1="236" y1="86" x2="236" y2="164" stroke="#D0D7E3" stroke-width="1" stroke-dasharray="3 3"/>
<line x1="280" y1="86" x2="280" y2="164" stroke="#D0D7E3" stroke-width="1" stroke-dasharray="3 3"/>
<text x="258.0" y="182" text-anchor="middle" fill="#1F2937" font-family="Inter, 'Helvetica Neue', Arial, sans-serif" font-size="11" font-weight="400" >D2</text>
<text x="258.0" y="129.0" text-anchor="middle" fill="#6B7280" font-family="Inter, 'Helvetica Neue', Arial, sans-serif" font-size="11" font-weight="400" >1</text>
<line x1="280" y1="86" x2="280" y2="164" stroke="#D0D7E3" stroke-width="1" stroke-dasharray="3 3"/>
<line x1="324" y1="86" x2="324" y2="164" stroke="#D0D7E3" stroke-width="1" stroke-dasharray="3 3"/>
<text x="302.0" y="182" text-anchor="middle" fill="#1F2937" font-family="Inter, 'Helvetica Neue', Arial, sans-serif" font-size="11" font-weight="400" >D3</text>
<text x="302.0" y="129.0" text-anchor="middle" fill="#6B7280" font-family="Inter, 'Helvetica Neue', Arial, sans-serif" font-size="11" font-weight="400" >0</text>
<line x1="324" y1="86" x2="324" y2="164" stroke="#D0D7E3" stroke-width="1" stroke-dasharray="3 3"/>
<line x1="368" y1="86" x2="368" y2="164" stroke="#D0D7E3" stroke-width="1" stroke-dasharray="3 3"/>
<text x="346.0" y="182" text-anchor="middle" fill="#1F2937" font-family="Inter, 'Helvetica Neue', Arial, sans-serif" font-size="11" font-weight="400" >D4</text>
<text x="346.0" y="129.0" text-anchor="middle" fill="#6B7280" font-family="Inter, 'Helvetica Neue', Arial, sans-serif" font-size="11" font-weight="400" >1</text>
<line x1="368" y1="86" x2="368" y2="164" stroke="#D0D7E3" stroke-width="1" stroke-dasharray="3 3"/>
<line x1="412" y1="86" x2="412" y2="164" stroke="#D0D7E3" stroke-width="1" stroke-dasharray="3 3"/>
<text x="390.0" y="182" text-anchor="middle" fill="#1F2937" font-family="Inter, 'Helvetica Neue', Arial, sans-serif" font-size="11" font-weight="400" >D5</text>
<text x="390.0" y="129.0" text-anchor="middle" fill="#6B7280" font-family="Inter, 'Helvetica Neue', Arial, sans-serif" font-size="11" font-weight="400" >1</text>
<line x1="412" y1="86" x2="412" y2="164" stroke="#D0D7E3" stroke-width="1" stroke-dasharray="3 3"/>
<line x1="456" y1="86" x2="456" y2="164" stroke="#D0D7E3" stroke-width="1" stroke-dasharray="3 3"/>
<text x="434.0" y="182" text-anchor="middle" fill="#1F2937" font-family="Inter, 'Helvetica Neue', Arial, sans-serif" font-size="11" font-weight="400" >D6</text>
<text x="434.0" y="129.0" text-anchor="middle" fill="#6B7280" font-family="Inter, 'Helvetica Neue', Arial, sans-serif" font-size="11" font-weight="400" >0</text>
<line x1="456" y1="86" x2="456" y2="164" stroke="#D0D7E3" stroke-width="1" stroke-dasharray="3 3"/>
<line x1="500" y1="86" x2="500" y2="164" stroke="#D0D7E3" stroke-width="1" stroke-dasharray="3 3"/>
<text x="478.0" y="182" text-anchor="middle" fill="#1F2937" font-family="Inter, 'Helvetica Neue', Arial, sans-serif" font-size="11" font-weight="400" >D7</text>
<text x="478.0" y="129.0" text-anchor="middle" fill="#6B7280" font-family="Inter, 'Helvetica Neue', Arial, sans-serif" font-size="11" font-weight="400" >0</text>
<line x1="500" y1="86" x2="500" y2="164" stroke="#D0D7E3" stroke-width="1" stroke-dasharray="3 3"/>
<line x1="544" y1="86" x2="544" y2="164" stroke="#D0D7E3" stroke-width="1" stroke-dasharray="3 3"/>
<text x="522.0" y="182" text-anchor="middle" fill="#E8607A" font-family="Inter, 'Helvetica Neue', Arial, sans-serif" font-size="11" font-weight="600" >STOP</text>
<text x="522.0" y="129.0" text-anchor="middle" fill="#6B7280" font-family="Inter, 'Helvetica Neue', Arial, sans-serif" font-size="11" font-weight="400" >1</text>
<text x="566.0" y="182" text-anchor="middle" fill="#6B7280" font-family="Inter, 'Helvetica Neue', Arial, sans-serif" font-size="10" font-weight="400" >idle</text>
<polyline points="60,100 104,100 104,150 148,150 148,100 192,100 192,150 236,150 236,100 280,100 280,150 324,150 324,100 368,100 412,100 412,150 456,150 500,150 500,100 544,100 588,100" fill="none" stroke="#378ADD" stroke-width="2.2" stroke-linejoin="round"/>
<text x="52" y="104" text-anchor="end" fill="#6B7280" font-family="Inter, 'Helvetica Neue', Arial, sans-serif" font-size="11" font-weight="400" >1</text>
<text x="52" y="154" text-anchor="end" fill="#6B7280" font-family="Inter, 'Helvetica Neue', Arial, sans-serif" font-size="11" font-weight="400" >0</text>
<text x="34" y="129.0" text-anchor="end" fill="#1F2937" font-family="Inter, 'Helvetica Neue', Arial, sans-serif" font-size="12" font-weight="600" >TX</text>
<line x1="148" y1="74" x2="500" y2="74" stroke="#1A3A6B" stroke-width="1.2" marker-start="url(#arr)" marker-end="url(#arr)"/>
<text x="324.0" y="68" text-anchor="middle" fill="#1A3A6B" font-family="Inter, 'Helvetica Neue', Arial, sans-serif" font-size="11" font-weight="600" >8 data bits — D0 (LSB) first</text>
<path d="M 236 196 v 7 h 44 v -7" fill="none" stroke="#E8607A" stroke-width="1.4"/>
<text x="258.0" y="220" text-anchor="middle" fill="#E8607A" font-family="Inter, 'Helvetica Neue', Arial, sans-serif" font-size="11" font-weight="600" >1 bit = 1/115200 s ≈ 8.7 µs</text>
<text x="360.0" y="290" text-anchor="middle" fill="#6B7280" font-family="Inter, 'Helvetica Neue', Arial, sans-serif" font-size="12" font-weight="400" font-style="italic">8N1: start bit + 8 data bits (LSB first) + stop bit — no clock line, both sides agree on the rate.</text>
</svg>